# xmcd
#
# Track frame offsets:
#	150
#	27754
#	53163
#	70015
#	91532
#	121346
#	146991
#	169556
#	202609
#	226918
#	233220
#	250864
#
# Disc length: 3614 seconds
#
# Revision: 1
# Processed by: cddbd v1.5.2PL0 Copyright (c) Steve Scherf et al.
# Submitted via: audiograbber 1.83.01
#
DISCID=8f0e1c0c
DTITLE=Eagles - Take It Easy - Live In The USA CD05
DYEAR=1900
DGENRE=Rock
TTITLE0=Peaceful Easy Feeling
TTITLE1=Best of My Love
TTITLE2=Tequila Sunrise
TTITLE3=Help Me Thru The Night
TTITLE4=The Heart Of The Matter
TTITLE5=Love Will Keep Us Alive
TTITLE6=Learn To Be Still
TTITLE7=Hotel California
TTITLE8=Wasted Time
TTITLE9=Wasted Time (Reprise)
TTITLE10=Lover's Moon
TTITLE11=Pretty Maids All In A Row
EXTD=
EXTT0=
EXTT1=
EXTT2=
EXTT3=
EXTT4=
EXTT5=
EXTT6=
EXTT7=
EXTT8=
EXTT9=
EXTT10=
EXTT11=
PLAYORDER=
